<svg xmlns="http://www.w3.org/2000/svg" width="0" height="0">

	<svg id="icon-arrow" viewBox="0 0 13 13">
		<style type="text/css">
			.st0{fill:none;stroke:#888;stroke-width:1.5;stroke-linecap:round;stroke-miterlimit:10;}
		</style>
		<line class="st0" x1="5" y1="3" x2="8" y2="6"/>
		<line class="st0" x1="8" y1="6" x2="5" y2="9"/>
	</svg>

	<svg id="icon-chevron-right" viewBox="0 0 13 13">
		<style type="text/css">
			.st0{fill:none;stroke:#333;stroke-width:1.5;stroke-linecap:round;stroke-miterlimit:10;}
		</style>
		<line class="st0" x1="4.5" y1="1.5" x2="9.5" y2="6.5"/>
		<line class="st0" x1="9.5" y1="6.5" x2="4.5" y2="11.5"/>
	</svg>

	<svg id="icon-chevron-plus" viewBox="0 0 13 13">
		<style type="text/css">
			.st0{fill:none;stroke:#333;stroke-width:1.5;stroke-linecap:round;stroke-miterlimit:10;}
		</style>
		<line class="st0" x1="6.5" y1="2.5" x2="6.5" y2="10.5"/>
		<line class="st0" x1="10.5" y1="6.5" x2="2.5" y2="6.5"/>
	</svg>

	<svg id="icon-chevron-minus" viewBox="0 0 13 13">
		<style type="text/css">
			.st0{fill:none;stroke:#333;stroke-width:1.5;stroke-linecap:round;stroke-miterlimit:10;}
		</style>
		<line class="st0" x1="10.5" y1="6.5" x2="2.5" y2="6.5"/>
	</svg>

	<svg id="icon-sidebar" viewBox="0 0 13 13">
		<style type="text/css">
			.st0{fill:#333;}
		</style>
		<path class="st0" d="M12,1H5H4H1H0v1v9v1h1h3h1h7h1v-1V2V1H12z M1,11V2h3v9H1z M12,11H5V2h7V11z"/>
		<rect x="2" y="3" class="st0" width="1" height="1"/>
		<rect x="2" y="5" class="st0" width="1" height="1"/>
	</svg>

	<svg id="icon-results" viewBox="0 0 13 13">
		<style type="text/css">
			.st0{fill:#333;}
		</style>
		<path class="st0" d="M12,1H1v11h11V1z M2,2h9v3H2V2z M2,11V6h9v5H2z"/>
	</svg>

	<svg id="icon-filter" viewBox="0 0 13 13">
		<style type="text/css">
			.st0{fill:#333;}
		</style>
		<path class="st0" d="M1.1,2.1c1.6,2.1,4,5.1,4,5.1v3.5c0,0.7,0.6,1.4,1.4,1.4l0,0c0.7,0,1.4-0.6,1.4-1.4V7.2c0,0,2.4-3,4-5.1
	c0.3-0.4,0-1.1-0.6-1.1H1.7C1.1,1,0.8,1.6,1.1,2.1z"/>
	</svg>

	<svg id="icon-key" viewBox="0 0 13 13">
		<style type="text/css">
			.st0{fill:#333;}
		</style>
		<path class="st0" d="M12,4.8c0,2.1-1.7,3.8-3.8,3.8c-0.2,0-0.5,0-0.7-0.1L7,9.1C6.9,9.2,6.8,9.3,6.6,9.3H5.8v0.9c0,0.3-0.2,0.5-0.5,0.5H4.4v0.9
		c0,0.3-0.2,0.5-0.5,0.5H1.5C1.2,12,1,11.8,1,11.5V9.8C1,9.7,1,9.6,1.1,9.5L4.6,6C4.5,5.6,4.4,5.2,4.4,4.8C4.4,2.7,6.1,1,8.2,1
		C10.3,1,12,2.7,12,4.8z M8.2,3.7c0,0.6,0.5,1,1,1s1-0.5,1-1s-0.5-1-1-1S8.2,3.2,8.2,3.7z"/>
	</svg>

	<svg id="icon-cogs" viewBox="0 0 13 13">
		<style type="text/css">
			.st0{fill:#333;}
		</style>
		<path class="st0" d="M10.6,7c0-0.2,0-0.3,0-0.5c0-0.2,0-0.4,0-0.5l1.2-0.9c0.1-0.1,0.1-0.2,0.1-0.3l-1.1-1.9c-0.1-0.1-0.2-0.2-0.3-0.1L9,3.2 C8.7,3,8.4,2.8,8.1,2.7L7.9,1.2C7.8,1.1,7.7,1,7.6,1H5.4C5.3,1,5.2,1.1,5.1,1.2L4.9,2.7C4.6,2.8,4.3,3,4,3.2L2.6,2.7 c-0.1,0-0.3,0-0.3,0.1L1.2,4.7C1.1,4.8,1.2,5,1.3,5.1L2.4,6c0,0.2-0.1,0.4-0.1,0.5s0,0.4,0,0.5L1.3,7.9C1.2,8,1.1,8.2,1.2,8.3 l1.1,1.9c0.1,0.1,0.2,0.2,0.3,0.1L4,9.8c0.3,0.2,0.6,0.4,0.9,0.5l0.2,1.5c0,0.1,0.1,0.2,0.3,0.2h2.2c0.1,0,0.3-0.1,0.3-0.2l0.2-1.5 C8.4,10.2,8.7,10,9,9.8l1.4,0.5c0.1,0,0.3,0,0.3-0.1l1.1-1.9c0.1-0.1,0-0.3-0.1-0.3L10.6,7z M6.5,8.9c-1.3,0-2.4-1.1-2.4-2.4 s1.1-2.4,2.4-2.4s2.4,1.1,2.4,2.4S7.8,8.9,6.5,8.9z"/>
	</svg>
	
	<svg id="icon-magnify" viewBox="0 0 13 13">
		<style type="text/css">
			.st0{fill:#333;}
		</style>
		<path class="st0" d="M11.8,10.3L9.3,7.9C9.7,7.2,10,6.4,10,5.5C10,3,8,1,5.5,1S1,3,1,5.5S3,10,5.5,10c0.9,0,1.7-0.3,2.4-0.7l2.5,2.5 c0.3,0.3,0.8,0.3,1.2,0l0.3-0.3C12.1,11.2,12.1,10.7,11.8,10.3z M2.8,5.5C2.8,4,4,2.8,5.5,2.8S8.2,4,8.2,5.5S7,8.2,5.5,8.2 S2.8,7,2.8,5.5z"/>
	</svg>

	<svg id="icon-play" viewBox="0 0 13 13">
		<style type="text/css">
			.st0{fill:#333;}
		</style>
		<path class="st0" d="M2,1.7v9.6c0,0.4,0.4,0.6,0.7,0.4l8.4-4.8c0.3-0.2,0.3-0.6,0-0.8L2.7,1.3C2.4,1.1,2,1.4,2,1.7z"/>
	</svg>

	<svg id="icon-stop" viewBox="0 0 13 13">
		<style type="text/css">
			.st0{fill:#333;}
		</style>
		<path class="st0" d="M9.7,11H2.3C1.6,11,1,10.4,1,9.7V2.3C1,1.6,1.6,1,2.3,1h7.5C10.5,1,11,1.6,11,2.3v7.4C11,10.4,10.5,11,9.7,11z"/>
	</svg>

	<svg id="icon-connection" viewBox="0 0 13 13">

	</svg>

	<svg id="icon-cancel" viewBox="0 0 13 13">
		<style type="text/css">
			.st0{fill:none;stroke:#333;stroke-width:1.5;stroke-linecap:round;stroke-miterlimit:10;}
		</style>
		<line class="st0" x1="10" y1="3" x2="3" y2="10"/>
		<line class="st0" x1="10" y1="10" x2="3" y2="3"/>
	</svg>

	<svg id="icon-check" viewBox="0 0 13 13">
		<style type="text/css">
			.st0{fill:none;stroke:#333;stroke-width:1.5;stroke-linecap:round;stroke-miterlimit:10;}
		</style>
		<line class="st0" x1="10.2" y1="3.8" x2="4.7" y2="9.2"/>
		<line class="st0" x1="4.7" y1="9.2" x2="2.8" y2="6.2"/>
	</svg>

	<svg id="icon-reload" viewBox="0 0 13 13">
		<style type="text/css">
			.st0{fill:#333;}
		</style>
		<path class="st0" d="M10.6,2.8C9.6,1.7,8.1,1,6.5,1C3.5,1,1,3.5,1,6.5h1C2,4,4,2,6.5,2C7.8,2,9,2.6,9.8,3.5L8.2,5.1H12V1.3L10.6,2.8z"/>
		<path class="st0" d="M11,6.5C11,9,9,11,6.5,11C5.2,11,4,10.4,3.2,9.5l1.6-1.6H1v3.8l1.4-1.4c1,1.1,2.5,1.8,4.1,1.8c3,0,5.5-2.5,5.5-5.5H11z"/>
	</svg>

	<svg id="icon-file" viewBox="0 0 17 17">
		<style type="text/css">
			.st0{fill:#aaa;}
		</style>
		<path class="st0" d="M14.4,6.2c-0.3-0.4-0.8-1-1.3-1.5c-0.5-0.5-1-0.9-1.5-1.3c-0.8-0.6-1.1-0.6-1.3-0.6l-5.2,0C4.5,2.9,4,3.4,4,4.1v10.7
			C4,15.4,4.5,16,5.2,16h8.6c0.6,0,1.2-0.5,1.2-1.2V7.6C15,7.4,14.9,7,14.4,6.2z M12.4,5.5c0.4,0.4,0.8,0.8,1.1,1.2l-2.5,0l0-2.3
			C11.3,4.5,12,5,12.4,5.5L12.4,5.5L12.4,5.5z M14,14.8c0,0.1-0.1,0.2-0.2,0.2l-8.5,0C5.1,15,5,14.9,5,14.8V4.1c0-0.1,0.1-0.2,0.2-0.2
			c0,0,4.8,0,4.8,0v3.3c0,0.3,0.2,0.5,0.5,0.5l3.5,0V14.8z"/>
		<path class="st0" d="M8.5,1H3.1C2.5,1,2,1.6,2,2.2v10.7c0,0.6,0.5,1,1,1.1V2.2C3,2.1,3.1,2,3.2,2h7C10,1.7,9.1,1,8.5,1z"/>
	</svg>

	<svg id="icon-server" viewBox="0 0 17 17">
		<style type="text/css">
			.st0{fill:#f5f5f5;stroke:#aaa;stroke-miterlimit:10;}
			.st1{fill:none;stroke:#bbb;stroke-miterlimit:10;}
		</style>
		<path class="st0" d="M13.4,5.5H3.6C3,5.5,2.5,5,2.5,4.4V2.6C2.5,2,3,1.5,3.6,1.5h9.8c0.6,0,1.1,0.5,1.1,1.1v1.8 C14.5,5,14,5.5,13.4,5.5z"/>
		<path class="st0" d="M13.4,10.5H3.6C3,10.5,2.5,10,2.5,9.4V7.6C2.5,7,3,6.5,3.6,6.5h9.8c0.6,0,1.1,0.5,1.1,1.1v1.8 C14.5,10,14,10.5,13.4,10.5z"/>
		<path class="st0" d="M13.4,15.5H3.6c-0.6,0-1.1-0.5-1.1-1.1v-1.8c0-0.6,0.5-1.1,1.1-1.1h9.8c0.6,0,1.1,0.5,1.1,1.1v1.8 C14.5,15,14,15.5,13.4,15.5z"/>
		<line class="st1" x1="4" y1="13.5" x2="7" y2="13.5"/>
		<line class="st1" x1="4" y1="8.5" x2="7" y2="8.5"/>
		<line class="st1" x1="4" y1="3.5" x2="7" y2="3.5"/>
	</svg>

	<svg id="icon-database" viewBox="0 0 17 17">
		<style type="text/css">
			.st0{fill:#e5e5e5;}
			.st1{fill:#999;}
			.st2{fill:#f5f5f5;}
		</style>
		<path class="st0" d="M8.5,15.7c-3.3,0-6.2-1.2-6.2-2.5V3.8c0-1.4,2.8-2.5,6.2-2.5s6.2,1.2,6.2,2.5v9.3C14.6,14.5,11.8,15.7,8.5,15.7
			z"/>
		<path class="st1" d="M8.5,1.5c3.4,0,5.9,1.2,5.9,2.3v0.2v9.2c0,1.1-2.5,2.3-5.9,2.3s-5.9-1.2-5.9-2.3V3.8C2.6,2.7,5.1,1.5,8.5,1.5 M8.5,1
			C4.9,1,2,2.2,2,3.8c0,0.1,0,9.3,0,9.3C2,14.7,4.9,16,8.5,16s6.4-1.2,6.4-2.8V3.9c0,0,0-0.1,0-0.2C14.9,2.2,12,1,8.5,1L8.5,1z"/>
		<path class="st2" d="M8.5,12.7c-3.3,0-6.2-1.2-6.2-2.5V7.1c0-1.4,2.8-2.5,6.2-2.5s6.2,1.2,6.2,2.5v3.1C14.6,11.5,11.8,12.7,8.5,12.7
			z"/>
		<path class="st1" d="M8.5,4.8c3.4,0,5.9,1.2,5.9,2.3v3.1c0,1.1-2.5,2.3-5.9,2.3s-5.9-1.2-5.9-2.3V7.1C2.6,6,5.1,4.8,8.5,4.8 M8.5,4.3
			C4.9,4.3,2,5.5,2,7.1v3.1c0,1.6,2.9,2.8,6.4,2.8s6.4-1.2,6.4-2.8V7.1C14.9,5.6,12,4.3,8.5,4.3L8.5,4.3z"/>
		<path class="st1" d="M8.5,4.1c3.4,0,5.9,1.2,5.9,2.3s-2.5,2.3-5.9,2.3S2.6,7.4,2.6,6.3S5.1,4.1,8.5,4.1 M8.5,3.5C4.9,3.5,2,4.8,2,6.3
			s2.9,2.8,6.4,2.8s6.4-1.2,6.4-2.8S12,3.5,8.5,3.5L8.5,3.5z"/>
		<path class="st0" d="M8.5,9.4c-3.3,0-6.2-1.2-6.2-2.5V3.8c0-1.4,2.8-2.5,6.2-2.5s6.2,1.2,6.2,2.5v3.1C14.6,8.2,11.8,9.4,8.5,9.4z"/>
		<path class="st1" d="M8.5,1.5c3.4,0,5.9,1.2,5.9,2.3v3.1c0,1.1-2.5,2.3-5.9,2.3S2.6,7.9,2.6,6.8V3.8C2.6,2.7,5.1,1.5,8.5,1.5 M8.5,1
			C4.9,1,2,2.2,2,3.8v3.1c0,1.6,2.9,2.8,6.4,2.8s6.4-1.2,6.4-2.8V3.8C14.9,2.2,12,1,8.5,1L8.5,1z"/>
		<path class="st0" d="M8.4,6.4c-3.3,0-6.2-1.2-6.2-2.5s2.8-2.5,6.2-2.5s6.2,1.2,6.2,2.5S11.7,6.4,8.4,6.4z"/>
		<path class="st1" d="M8.4,1.5c3.4,0,5.9,1.2,5.9,2.3S11.8,6,8.4,6S2.5,4.9,2.5,3.8S5,1.5,8.4,1.5 M8.4,1C4.9,1,2,2.2,2,3.8s2.9,2.8,6.4,2.8
			s6.4-1.2,6.4-2.8S12,1,8.4,1L8.4,1z"/>
	</svg>

	<svg id="icon-table" viewBox="0 0 17 17">
		<style type="text/css">
			.st0{fill:#e5e5e5;stroke:#999;stroke-miterlimit:10;}
			.st1{fill:#e5e5e5;stroke:#ccc;stroke-miterlimit:10;}
		</style>
		<path class="st0" d="M13.5,14.5h-10c-0.6,0-1-0.5-1-1V3.4c0-0.6,0.4-1,1-1h10c0.6,0,1,0.4,1,1v10.1C14.5,14.1,14.1,14.5,13.5,14.5z"/>
		<line class="st0" x1="8.5" y1="2.7" x2="8.5" y2="6.4"/>
		<line class="st1" x1="8.5" y1="6.9" x2="8.5" y2="14"/>
		<line class="st0" x1="2.5" y1="6.4" x2="14.5" y2="6.4"/>
		<line class="st1" x1="3" y1="10.4" x2="14" y2="10.4"/>
	</svg>

	<svg id="icon-tables" viewBox="0 0 17 17">
		<style type="text/css">
			.st0{fill:#e5e5e5;stroke:#999;stroke-miterlimit:10;opacity:.8;}
			.st1{fill:#e5e5e5;stroke:#999;stroke-miterlimit:10;}
			.st2{fill:#e5e5e5;stroke:#ccc;stroke-miterlimit:10;}
		</style>
		<path class="st0" d="M12.5,13.5h-10c-0.6,0-1-0.5-1-1V2.4c0-0.6,0.5-1,1-1h10c0.6,0,1,0.5,1,1v10.1C13.5,13.1,13.1,13.5,12.5,13.5z"/>
		<path class="st1" d="M14.5,15.5h-10c-0.6,0-1-0.5-1-1V4.4c0-0.5,0.4-1,1-1h10c0.6,0,1,0.4,1,1v10.1C15.5,15.1,15.1,15.5,14.5,15.5z"/>
		<line class="st1" x1="9.5" y1="3.7" x2="9.5" y2="7.4"/>
		<line class="st2" x1="9.5" y1="7.9" x2="9.5" y2="15"/>
		<line class="st1" x1="3.5" y1="7.4" x2="15.5" y2="7.4"/>
		<line class="st2" x1="4" y1="11.4" x2="15" y2="11.4"/>
	</svg>

	<svg id="icon-column" viewBox="0 0 17 17">
		<style type="text/css">
			.st0{fill:#e5e5e5;stroke:#999;stroke-miterlimit:10;}
			.st1{fill:#e5e5e5;stroke:#ccc;stroke-miterlimit:10;}
		</style>
		<path class="st0" d="M11.5,14.5h-6c-0.6,0-1-0.5-1-1V3.4c0-0.6,0.4-1,1-1h6c0.6,0,1,0.4,1,1v10.1C12.5,14.1,12.1,14.5,11.5,14.5z"/>
		<line class="st0" x1="4.5" y1="6.4" x2="12.5" y2="6.4"/>
		<line class="st1" x1="5" y1="10.4" x2="12" y2="10.4"/>
	</svg>

	<svg id="icon-new-file" viewBox="0 0 17 17">
		<style type="text/css">
			.st0{fill:#333;}
		</style>
		<polygon class="st0" points="3,2 3,15 14,15 14,7 8.9,7 8.9,2 "/>
		<polygon class="st0" points="9.7,6.3 13.9,6.3 9.7,2.1 "/>
	</svg>

	<svg id="icon-folder-open" viewBox="0 0 17 17">
		<style type="text/css">
			.st0{fill:#333;}
		</style>
		<path class="st0" d="M16,9.5c0,0.2-0.1,0.4-0.2,0.5L13.1,13c-0.5,0.5-1.4,1-2.1,1H2.3c-0.3,0-0.7-0.1-0.7-0.4c0-0.2,0.1-0.4,0.2-0.5L4.5,10
			C5,9.4,5.9,9,6.6,9h8.7C15.6,9,16,9.1,16,9.5z M13.2,6.4V8H6.6c-1,0-2.2,0.6-2.9,1.3L1,12.4c0-0.1,0-0.1,0-0.2l0-7.7
			C1,3.5,1.3,3,2.3,3h3.5c1,0,1.4,0.3,1.4,1.3V5h4.7C12.8,5,13.2,5.4,13.2,6.4z"/>
	</svg>

	<svg id="icon-clipboard" viewBox="0 0 17 17">
		<style type="text/css">
			.st0{fill:#333;}
		</style>
		<path class="st0" d="M14.6,2.9h-4.2c0-1-0.8-1.9-1.9-1.9S6.6,1.8,6.6,2.9H2.4c-0.3,0-0.5,0.2-0.5,0.5v12.2c0,0.3,0.2,0.5,0.5,0.5h12.2
			c0.3,0,0.5-0.2,0.5-0.5V3.3C15.1,3.1,14.9,2.9,14.6,2.9z M8.5,1.9c0.5,0,0.9,0.4,0.9,0.9S9,3.8,8.5,3.8S7.6,3.4,7.6,2.9
			S8,1.9,8.5,1.9z M14,15H3V4h1.7v1.5C4.7,5.8,5,6,5.2,6h6.6c0.3,0,0.5-0.2,0.5-0.5V4H14V15z"/>
		<path class="st0" d="M7.6,13.6l-3-3.5l0.9-0.9l2.2,1.7l4-3.6l0.9,0.9L7.6,13.6z"/>
	</svg>

	<svg id="icon-display-db" viewBox="0 0 17 17">
		<style type="text/css">
			.st0{fill:#9b9;}
		</style>
		<path class="st0" d="M8.5,6.7c3.6,0,6.4-1,6.4-2.1V3.1c0-1.1-2.8-2.1-6.4-2.1S2.1,2.1,2.1,3.1v1.5C2.1,5.9,4.9,6.7,8.5,6.7z"/>
		<path class="st0" d="M8.5,7.7L8.5,7.7C6,7.7,3.4,7.2,2.1,6.3v3c0,1.1,2.8,2.1,6.2,2.1l0,0h0.3l0,0c3.4,0,6.2-0.9,6.2-2.1v-3
			C13.6,7.2,11,7.7,8.5,7.7z"/>
		<path class="st0" d="M8.5,12.3L8.5,12.3c-2.5,0-5.1-0.5-6.4-1.4v3c0,1.1,2.7,2.1,6.2,2.1l0,0h0.3l0,0c3.4,0,6.2-0.9,6.2-2.1v-3
			C13.6,11.8,11,12.3,8.5,12.3z"/>
	</svg>

</svg>